<?xml version="1.0" encoding="UTF-8"?>
<svg id="Layer_2" data-name="Layer 2" xmlns="http://www.w3.org/2000/svg" viewBox="0 0 426.34 351.98">
  <defs>
    <style>
      .cls-1 {
        fill: #fff;
      }
    </style>
  </defs>
  <g id="Layer_1-2" data-name="Layer 1">
    <g>
      <g>
        <polygon class="cls-1" points="192.07 171.71 192.02 171.7 173.66 300.09 203.31 334.69 218.15 230.92 220.61 213.62 220.96 210.54 192.07 171.71"/>
        <polygon class="cls-1" points="391.75 109.89 381.65 180.54 323.52 109.88 304.64 109.87 290.75 207.08 218.8 109.85 126.01 109.84 91.43 109.85 4.94 109.84 0 144.42 86.48 144.43 56.79 351.98 93.86 334.68 121.07 144.43 198.27 144.44 312.89 298.57 320.3 246.69 327.72 194.81 330.21 177.5 331.24 170.22 404.64 261.69 410.92 217.79 426.34 109.89 391.75 109.89"/>
      </g>
      <polygon class="cls-1" points="380.81 114.21 334.3 45.54 245.34 15.51 233.76 0 216.95 .76 215.33 12.06 126.16 15.7 62.23 68.53 140.96 42.53 211.28 40.33 202.18 103.77 221.26 103.9 234.79 121.31 245.7 45.27 312.56 67.14 380.81 114.21"/>
    </g>
  </g>
</svg>