<?xml version="1.0" encoding="UTF-8"?>
<svg id="Layer_2" data-name="Layer 2" xmlns="http://www.w3.org/2000/svg" viewBox="0 0 417.2 373.53">
  <defs>
    <style>
      .cls-1 {
        fill: #fff;
      }
    </style>
  </defs>
  <g id="Layer_1-2" data-name="Layer 1">
    <g>
      <g>
        <polygon class="cls-1" points="194.01 175.89 193.96 175.88 194.01 305.58 228.28 335.63 228.23 230.8 228.22 213.33 228.13 210.22 194.01 175.89"/>
        <polygon class="cls-1" points="382.9 86.35 382.93 157.73 315.36 96.02 296.66 98.7 296.71 196.89 211.69 110.86 119.84 124.03 85.61 128.94 0 141.2 .01 176.14 85.62 163.87 85.69 373.53 119.93 351.15 119.86 158.96 196.28 148.01 331.61 284.31 331.58 231.91 331.57 179.51 331.57 162.02 331.56 154.66 417.2 234.79 417.19 190.44 417.14 81.44 382.9 86.35"/>
      </g>
      <polygon class="cls-1" points="372.68 92.18 316.9 30.81 224.57 13.71 210.91 0 194.38 3.13 194.38 14.56 106.63 30.81 50.84 92.18 125.08 55.27 194.38 43.11 194.38 107.2 213.28 104.62 229.15 119.93 229.15 43.11 298.44 55.27 372.68 92.18"/>
    </g>
  </g>
</svg>